<?xml version="1.0" encoding="utf-8"?>
<!-- Generator: Adobe Illustrator 22.1.0, SVG Export Plug-In . SVG Version: 6.00 Build 0)  -->
<svg version="1.1" id="Layer_1" xmlns="http://www.w3.org/2000/svg" xmlns:xlink="http://www.w3.org/1999/xlink" x="0px" y="0px"
	 viewBox="0 0 1366 768" style="enable-background:new 0 0 1366 768;" xml:space="preserve">
<style type="text/css">
	.st0{fill:#97D6A7;}
	.st1{opacity:0.4;}
</style>
<g>
	<polygon class="st0" points="658.6,220.9 510.7,73 806.5,73 	"/>
</g>
<g class="st1">
	<g>
		
			<rect x="804.8" y="201" transform="matrix(0.7071 -0.7071 0.7071 0.7071 90.2096 636.1452)" class="st0" width="16.4" height="16.4"/>
	</g>
	<g>
		
			<rect x="761.8" y="158" transform="matrix(0.7071 -0.7071 0.7071 0.7071 108.0208 593.1452)" class="st0" width="16.4" height="16.4"/>
	</g>
	<g>
		<g>
			
				<rect x="804.8" y="158" transform="matrix(0.7071 -0.7071 0.7071 0.7071 120.6152 623.5508)" class="st0" width="16.4" height="16.4"/>
		</g>
		<g>
			
				<rect x="804.8" y="115" transform="matrix(0.7071 -0.7071 0.7071 0.7071 151.0208 610.9564)" class="st0" width="16.4" height="16.4"/>
		</g>
	</g>
	<g>
		<g>
			
				<rect x="761.8" y="201" transform="matrix(0.7071 -0.7071 0.7071 0.7071 77.6152 605.7396)" class="st0" width="16.4" height="16.4"/>
		</g>
		<g>
			
				<rect x="718.8" y="201" transform="matrix(0.7071 -0.7071 0.7071 0.7071 65.0208 575.334)" class="st0" width="16.4" height="16.4"/>
		</g>
	</g>
</g>
<g class="st1">
	<g>
		
			<rect x="496" y="201" transform="matrix(0.7071 -0.7071 0.7071 0.7071 -0.2417 417.7765)" class="st0" width="16.4" height="16.4"/>
	</g>
	<g>
		
			<rect x="539" y="158" transform="matrix(0.7071 -0.7071 0.7071 0.7071 42.7583 435.5877)" class="st0" width="16.4" height="16.4"/>
	</g>
	<g>
		<g>
			
				<rect x="496" y="158" transform="matrix(0.7071 -0.7071 0.7071 0.7071 30.1639 405.1821)" class="st0" width="16.4" height="16.4"/>
		</g>
		<g>
			
				<rect x="496" y="115" transform="matrix(0.7071 -0.7071 0.7071 0.7071 60.5695 392.5877)" class="st0" width="16.4" height="16.4"/>
		</g>
	</g>
	<g>
		<g>
			
				<rect x="539" y="201" transform="matrix(0.7071 -0.7071 0.7071 0.7071 12.3527 448.1821)" class="st0" width="16.4" height="16.4"/>
		</g>
		<g>
			
				<rect x="582" y="201" transform="matrix(0.7071 -0.7071 0.7071 0.7071 24.9471 478.5877)" class="st0" width="16.4" height="16.4"/>
		</g>
	</g>
</g>
</svg>
